<?xml version="1.0"?><svg width="276.453" height="287.744" xmlns="http://www.w3.org/2000/svg">
 <title>Sun</title>
 <g>
  <title>Layer 1</title>
  <g id="svg_1">
   <path d="m159.811005,91.68c-9.291,-2.715004 -20.158005,-2.238998 -31.680008,-3.840004c0.841003,-2.088997 3.831009,-1.829994 5.76001,-1.919998c8.709991,-0.405998 21.962997,1.150002 25.919998,5.760002z" fill-rule="evenodd" clip-rule="evenodd" id="svg_8"/>
   <path d="m109.411003,92.639999c-2.054001,3.386002 -5.166,5.713997 -9.600006,6.720001c1.826004,-3.613998 4.906006,-5.973999 9.600006,-6.720001z" fill-rule="evenodd" clip-rule="evenodd" id="svg_10"/>
   <path d="m261.091003,94.559998c-0.548004,2.296005 -2.588013,2.003006 -4.320007,1.440002c0.238007,-1.612999 2.959991,-2.449997 4.320007,-1.440002z" fill-rule="evenodd" clip-rule="evenodd" id="svg_11"/>
   <path d="m175.651001,104.160004c-2.916,-0.764 -5.031006,-2.328003 -5.759995,-5.280006c3.054001,-1.173996 4.296997,3.295006 5.759995,5.280006z" fill-rule="evenodd" clip-rule="evenodd" id="svg_12"/>
   <path d="m178.531006,99.360001c3.332993,0.422997 6.228989,3.586998 5.759995,6.239998c-2.294006,-1.706001 -4.343994,-3.655998 -5.759995,-6.239998z" fill-rule="evenodd" clip-rule="evenodd" id="svg_14"/>
   <path d="m90.210999,105.599998c-0.493996,1.905998 -1.212997,3.586998 -3.839996,3.360001c0.590996,-1.667999 1.884995,-4.588997 3.839996,-3.360001z" fill-rule="evenodd" clip-rule="evenodd" id="svg_15"/>
   <path d="m182.371002,170.399994c-1.770004,1.271011 -2.969009,3.111008 -5.76001,3.359009c0.047012,-2.992996 1.828003,-4.251007 3.840012,-5.279007c1.860001,-2.300995 1.970001,-6.350998 5.279999,-7.199997c0.128998,3.809006 -1.755997,5.604004 -2.880005,8.160004c6.089005,-3.190002 8.345001,-10.216003 10.080002,-17.76001c2.132996,3.729004 -0.994003,10.091003 -2.399994,13.439011c6.35199,-6.533997 5.746994,-19.654999 7.199997,-28.800003c3.621994,13.110001 -1.501007,31.606995 -10.559998,36.479004c-0.348007,-1.466003 0.48999,-1.749008 0.478989,-2.880005c-1.889999,-0.912994 -1.92099,4.147003 -5.279999,3.360001c-0.655991,-0.612 -0.655991,-2.264999 0.001007,-2.878006z" fill-rule="evenodd" clip-rule="evenodd" id="svg_27"/>
   <path d="m89.250999,164.160004c0.480003,0 0.959999,0 1.440002,0c0.745995,6.134995 6.397995,7.360992 7.68,12.959991c-4.411003,-1.063995 -8.059006,-6.955994 -9.120003,-12.959991z" fill-rule="evenodd" clip-rule="evenodd" id="svg_31"/>
   <path d="m177.570999,166.080002c-1.298004,3.022003 -2.220993,6.418991 -5.759995,7.199997c-0.835007,-3.132004 3.334,-7.386002 5.759995,-7.199997z" fill-rule="evenodd" clip-rule="evenodd" id="svg_32"/>
   <path d="m99.331001,170.878998c1.887001,1.153 3.879997,2.199997 4.32,4.800995c-2.562004,1.519012 -5.601997,-2.474991 -4.32,-4.800995z" fill-rule="evenodd" clip-rule="evenodd" id="svg_34"/>
   <path d="m88.771004,181.919006c3.983994,2.097 5.343994,6.815994 8.639999,9.600998c2.802994,0.716995 5.364998,1.675003 6.239998,4.319c-2.992004,1.559998 -4.596001,-2.012009 -7.200005,-2.399002c-2.026993,-4.085999 -7.463997,-7.212006 -7.679993,-11.520996z" fill-rule="evenodd" clip-rule="evenodd" id="svg_40"/>
   <path d="m180.931,182.399994c-3.576996,5.270004 -8.371994,11.725006 -15.839996,11.520004c4.212997,-4.906998 10.491989,-7.748001 15.839996,-11.520004z" fill-rule="evenodd" clip-rule="evenodd" id="svg_41"/>
   <path d="m180.451004,188.160004c-3.290009,7.748993 -11.949997,10.12999 -18.238998,14.87999c-6.175003,0.731003 -11.871002,4.414001 -18.240005,3.360001c0.304001,-1.776001 2.695007,-1.464996 4.800003,-1.439987c3.015991,-1.156006 6.285004,-3.485001 10.080002,-2.399002c6.401993,-5.598007 14.832001,-9.167999 21.598999,-14.401001z" fill-rule="evenodd" clip-rule="evenodd" id="svg_43"/>
   <path d="m110.371002,195.360001c1.136002,0.464005 2.357994,0.841995 1.919998,2.880005c-2.372002,0.763992 -3.002998,-1.656006 -1.919998,-2.880005z" fill-rule="evenodd" clip-rule="evenodd" id="svg_45"/>
   <path d="m113.250999,202.559998c-3.840996,-0.158997 -5.661003,-2.339996 -7.68,-4.319992c2.768997,-2.362 7.042,1.418991 7.68,4.319992z" fill-rule="evenodd" clip-rule="evenodd" id="svg_46"/>
   <path d="m86.850998,269.279999c1.265999,-0.145996 1.237999,1.002014 1.440002,1.920013c-1.601997,0.481995 -1.573997,-0.666016 -1.440002,-1.920013z" fill-rule="evenodd" clip-rule="evenodd" id="svg_53"/>
   <path d="m77.731003,137.279999c-0.698006,12.585999 0.419998,28.959 8.159996,36c-1.349998,-3.194992 -2.876999,-8.848999 -3.839996,-13.919998c-0.387001,-2.033997 -3.493004,-7.147995 0.959999,-7.680008c-0.515999,10.212006 4.281998,18.573013 9.119995,24.960007c-2.389,0.468994 -2.858994,-0.981003 -4.32,-1.440002c-0.906998,0.054001 -0.333,1.587006 -1.439995,1.440002c-2.098,0.315994 -2.437004,-3.615997 -3.840004,-2.399994c-4.881996,-8.697998 -9.536995,-26.396011 -5.759995,-37.440002c1.896996,-0.634003 -0.154007,1.897003 0.959999,0.479996z" fill-rule="evenodd" clip-rule="evenodd" id="svg_60"/>
   <path d="m87.810997,212.639999c-3.435997,0.723999 -5.385994,2.934006 -7.199997,5.279007c-14.038002,7.240997 -23.318001,19.241989 -38.400002,25.439987c-2.192997,-5.313995 3.559002,-7.951996 5.760002,-12c2.515999,-4.626999 3.273998,-10.416 5.759998,-15.360001c1.174999,-2.337997 3.428001,-4.405991 4.799999,-6.719986c4.062,-6.848007 7.566002,-15.817001 11.520004,-23.040009c-14.310001,-4.695999 -15.533001,10.343994 -23.040001,14.880005c-2.941002,1.776993 -7.843002,2.666 -11.040001,2.87999c-5.125,0.344009 -10.99,-2.353989 -16.320002,-1.438995c-2.848999,0.488007 -3.223,3.419006 -6.239999,1.438995c-3.458,1.66301 -4.013,6.228012 -6.72,8.641006c-4.901,-4.222992 -3.412,-16.572998 0,-20.641006c2.747,-3.272995 7.39,-6.209 11.040001,-7.199997c5.568998,-1.511993 16.768,1.574997 20.159998,-4.319c1.459,-10.061996 8.912003,-14.127991 14.880001,-19.681c-1.763,-2.393997 -4.372002,-1.47699 -6.720001,-1.919998c-11.814999,-2.229004 -24.241999,-5.377991 -35.519999,-7.199005c-3.051,-0.492996 -8.315,0.757004 -9.6,-3.359985c1.321,-3.429001 5.255,-2.296005 7.68,-2.880005c5.139,-1.238007 9.465,-3.759003 14.4,-4.800003c1.445,-0.304993 2.806,0.264999 4.32,0c5.959002,-1.042999 12.268999,-4.457001 18.719999,-6.240005c6.467003,-1.787994 12.993999,-2.619995 19.200001,-5.279999c0.208,-9.787994 -16.896999,-5.551994 -26.880001,-8.159996c-3.014999,-0.788002 -7.142998,-2.234001 -9.119999,-3.839996c-1.299999,-1.056999 -1.559999,-3.339005 -2.4,-4.32c-0.721001,-0.841003 -2.183001,-1.083 -2.879999,-1.920006c-2.794001,-3.352997 -4.254002,-7.805 -6.720001,-12.959999c-2.900999,-2.264 -5.955,-4.883995 -11.039999,-4.32c-2.374,0.263 -3.398,2.333 -5.76,1.440002c-1.917,-2.689003 2.836,-6.231003 3.84,-9.120003c4.338,-1.143997 6.662,-3.517998 11.04,-3.360001c8.891999,0.32 14.841001,10.281006 19.680001,15.360001c9.972,5.873001 23.642998,-4.002998 33.599998,0.480003c-0.402,-4.338005 -5.949001,-7.771004 -4.32,-11.040001c-3.935001,-0.386002 -3.531002,-5.109001 -6.720001,-6.239998c-2.735001,-5.621002 -6.848999,-11.019005 -10.559998,-16.32c-3.457001,-4.938004 -9.262001,-9.932003 -7.68,-16.800003c7.202999,1.917 12.025997,6.214001 16.799999,10.560001c14.596996,7.323002 26.243999,17.595997 41.280003,24.48c5.82,-10.902 -9.952003,-15.215004 -14.400002,-22.080002c-3.604004,-8.591999 -2.797005,-15.062 -3.360001,-24.48c5.045998,-7.893 0.427002,-18.513 -5.760002,-22.08c-1.677002,-0.129999 -5.124001,-0.556 -5.279999,-2.879999c-0.444,-6.591001 16.822998,-2.094001 19.68,0c1.086998,2.112 3.336998,3.063 5.279999,4.32c2.281998,5.919001 5.141998,10.980999 5.760002,17.279999c0.230995,2.355 -0.854004,4.899002 -0.480003,7.200001c2.101006,12.924999 20.815002,11.278 25.440002,23.040001c4.162003,-10.792 3.923004,-28.510002 6.240005,-40.32c1.166,-5.944 2.73999,-12.358001 5.279999,-17.280001c5.078003,0.67 5.199997,7.155 6.23999,11.039999c4.576004,17.087002 7.722,37.569 13.919998,54.240002c4.744003,-3.397003 8.044006,-2.639 9.12001,-8.16c1.009003,-5.177002 -2.258011,-9.063 -1.919998,-15.360001c0.297989,-5.575001 2.82399,-11.708 5.759995,-15.360001c6.970993,-8.676001 23.511993,-8.483 20.160004,-23.52c-0.695999,-3.121 -4.49501,-5.971 -1.919998,-8.64c9.067001,2.041 14.253998,11.952 13.919998,21.6c-0.444,12.825998 -15.501999,16.629999 -15.360001,29.280001c3.098999,7.874001 5.513992,18.812 1.440002,26.399998c10.612991,-2.061996 17.906998,-11.846001 26.87999,-18.239998c3.105011,-2.214001 6.789001,-4.002003 10.080002,-6.240002c2.837997,-1.93 5.854004,-6.562 10.07901,-4.32c0.847992,4.549 -3.346008,7.401001 -5.76001,10.560001c-7.231995,9.464996 -13.261002,21.027 -19.679993,31.68c-3.527008,3.992996 -6.184998,8.855995 -8.160004,14.400002c9.774994,7.056999 17.231995,-4.688004 21.119995,-11.040001c6.727997,-2.529999 12.104004,-6.106003 19.680008,-6.720001c5.927994,-0.480003 12.36499,2.116997 18.23999,0.959999c5.345001,-1.053001 7.123993,-5.417999 11.040009,-8.639999c5.626007,4.022003 0.108002,14.25 -1.440002,18.720001c-4.360992,1.577995 -6.557007,5.080002 -11.040009,6.239998c-4.463989,1.154999 -11.003998,-0.376999 -15.358994,0.959999c-8.565002,2.631004 -9.139999,12.955002 -14.399994,19.200005c-3.477005,1.962997 -7.095001,3.785004 -10.080002,6.23999c7.526001,5.694 21.403992,5.873001 32.640991,8.160004c3.198013,0.651001 5.822021,2.324005 8.640015,2.880005c3.632996,0.716995 11.727997,-1.594009 11.039978,5.279999c-19.377991,4.781998 -39.903992,8.414993 -59.039993,13.438995c2.627014,3.235001 3.462006,9.529999 7.680008,11.521011c5.789001,2.729996 12.531006,0.301987 19.681,1.438995c12.248001,1.951004 16.626999,11.29599 20.640015,22.561005c3.495972,4.436996 10.978973,2.280991 16.799988,2.87999c0.132996,8.612 -8.618011,8.34201 -13.920013,11.520996c-4.927979,-1.460999 -7.706985,-0.541992 -11.039993,-2.399994c-4.963989,-2.768005 -6.547989,-9.593994 -10.559998,-12.479996c-2.798004,-2.013 -8.888992,-2.73201 -13.440002,-1.919998c-5.524994,0.987 -13.807999,7.435989 -21.119995,1.919998c4.942993,12.337997 14.710999,19.849991 19.681,32.160004c2.567001,4.815994 8.481003,8.766998 8.639999,14.399994c-4.348007,1.421997 -8.279999,-2.313995 -11.520996,-4.800003c-10.007004,-7.679001 -22.686005,-14.272003 -33.600006,-21.119995c-3.304993,-3.255997 -6.826004,-6.294998 -12,-7.681c-1.449997,2.643997 -2.455994,4.649994 -2.399002,7.199997c0.149002,6.809006 6.541,8.533005 11.040009,12.960007c4.40799,4.338989 6.703995,12.313995 7.19899,18.23999c0.672012,8.026001 -2.552994,18.649002 1.919998,24.960007c1.407013,3.488983 7.921005,3.181 8.160004,6.720001c0.298004,4.397003 -6.574997,3.980988 -12.959991,3.839996c-7.007004,-3.798004 -14.641998,-9.95401 -15.840012,-19.199005c-0.688995,-5.316986 1.274002,-7.423004 0.480011,-12.479996c-1.74501,-11.113998 -10.417007,-7.587997 -17.279999,-13.438995c-2.383011,-2.031998 -2.544006,-5.549011 -6.240005,-7.681c-2.565002,2.462997 -1.438004,6.526001 -2.399994,10.080002c-0.667999,2.467987 -2.354004,4.591995 -2.880005,7.199997c-1.125,5.580994 0.231995,12.300003 -2.880005,16.319992c0.608002,4.800018 -1.416,7.929016 -2.87999,14.399017c-0.721008,3.188995 -0.641006,7.80899 -3.840012,7.681c-4.871002,-0.196014 -2.427994,-11.050018 -2.87999,-14.881012c-0.210007,-1.78299 -1.430008,-3.375 -1.919998,-5.278992c-1.053009,-4.087006 -1.011002,-8.734009 -1.920013,-12.960007c-2.813995,-13.074997 -6.205994,-25.682999 -8.159996,-35.520996c-2.700996,-0.30101 -2.959999,1.839996 -5.279999,1.919998c-4.132996,7.113998 -1.760002,20.296997 -5.279999,28.799988c-5.920998,14.302002 -22.527,17.733002 -24,29.761017c-0.592003,4.835999 1.950996,8.899994 -1.440002,10.079987c-5.853996,2.035004 -6.857994,-10.462006 -9.119995,-12c0.903,-3.247986 -1.393005,-2.56601 -0.959999,-8.640991c0.460999,-6.46402 3.509995,-11.570999 6.719994,-16.319c1.003006,-0.276001 1.370003,-1.190002 2.880005,-0.960007c1.478996,-5.348999 7.617996,-8.636002 7.199997,-15.360001c-0.416,-6.673004 -8.038002,-13.216995 -4.802002,-21.600998zm1.920006,-191.039999c0.026001,0.612999 0.614998,0.664999 0.479996,1.440001c2.581001,6.667 -0.468002,13.549999 0,19.68c0.792,10.376999 7.411003,16.212997 16.800003,18.719997c5.445,3.852001 7.348,9.704998 9.119995,16.320004c2.209,-0.031006 3.822006,-0.658005 5.280006,-1.440002c0.669998,-6.392998 -0.616005,-10.415001 -3.840004,-14.400002c-6.151001,-7.605 -19.352997,-7.468998 -22.080002,-16.799999c-1.693001,-5.793999 -0.140999,-12.563 -1.919998,-18.24c-1.598999,-5.102999 -5.742996,-10.452999 -11.040001,-11.52c1.797005,3.882001 4.624001,9.133 4.32,14.88c-0.281998,5.313002 -2.686996,9.727999 -2.879997,15.359999c-0.665001,19.313004 19.427002,17.916 19.68,36.959999c4.266998,0.427002 5.541,-2.139999 7.68,-3.839996c-0.924004,-7.553001 -4.399002,-14.411003 -11.040001,-17.280003c-1.067001,-0.460999 -3.050003,-0.143997 -4.32,-0.959999c-4.252998,-2.735001 -7.753998,-10.642998 -8.160004,-17.279999c-0.183998,-3 1.220001,-6.308002 1.440002,-10.080002c0.288002,-4.925999 -2.684998,-9.268999 0,-11.999998c0.292999,0.026999 0.568001,0.071999 0.480003,0.48zm86.87999,23.519999c-2.225998,9.117001 2.656006,18.519001 0,26.880001c-1.271988,4.007004 -3.893997,6.126999 -5.759995,10.559998c0.992004,0.928001 2.669998,1.170006 3.839996,1.920006c7.320999,-5.974007 11.263,-11.722 10.080002,-21.600002c-0.513,-4.281002 -3,-8.358002 -3.360001,-12.48c-1.25,-14.310001 17.712006,-17.805 13.440002,-30.720001c-2.041992,11.883999 -15.501999,14.225998 -18.240005,25.439999zm13.920013,-23.519999c-1.588013,4.489 -6.751007,4.973 -10.560013,7.199999c-5.050995,2.953001 -12.15799,9.028999 -12.959991,16.799999c-0.436996,4.229 1.945999,7.725002 2.399002,12.960003c0.429001,4.947998 -1.428009,7.27 -2.399002,11.52c-2.492996,2.626999 -7.013,3.227997 -8.160004,7.199997c7.505997,6.599998 13.637009,-2.778 14.880005,-9.119995c1.653992,-8.443005 -2.783997,-18.740005 0.479996,-26.400005c4.779999,-11.218998 14.563004,-10.169998 17.759995,-20.159998c-0.479996,0 -0.959991,0 -1.439987,0zm-63.360008,53.279997c1.929008,0.254005 6.67701,0.237999 9.120003,-0.479996c0.391998,-16.274002 0.507004,-35.683002 0.479996,-51.840002c-0.106003,-0.373999 -0.401993,-0.557999 -0.959991,-0.48c-3.575012,15.783998 -5.111008,36.469 -8.640007,52.799997zm14.400002,-0.479996c2.401001,0.740997 6.893005,1.607002 9.600998,0.479996c-3.070999,-14.529999 -6.35199,-28.848999 -11.041,-41.759998c-0.190994,14.120003 -0.571991,29.924999 1.440002,41.280003zm-58.080002,16.799995c1.853004,-0.876999 2.995003,3.073006 5.760002,2.880005c2.401001,-1.973 6.805,-2.723999 6.720001,-5.760002c-0.127998,-4.579002 -11.981003,-5.991997 -13.440002,-10.559998c-10.485001,-2.955002 -16.483002,-10.397003 -25.919998,-14.400002c7.078999,10.852997 20.287003,18.096001 26.879997,27.839996zm96.960007,-2.399994c5.526001,8.197998 8.671997,3.176994 14.399994,-2.400002c3.070999,-2.991005 7.281006,-5.607002 9.600006,-8.160004c1.565994,-1.724998 1.955002,-4.041 3.360001,-5.279999c1.095001,-0.964996 2.692001,-1.176003 3.358994,-1.919998c1.307999,-1.458 1.731995,-3.918999 2.880997,-5.279999c0.932999,-1.106003 3.033005,-0.509003 1.919998,-2.400002c-11.168991,9.151001 -24.29599,16.344002 -35.519989,25.440002zm-100.800003,15.839996c2.984001,-1.015999 4.292999,-3.707001 5.279999,-6.720001c-9.212997,-10.714996 -20.297997,-23.813995 -32.639999,-32.159996c9.758999,12.320999 16.846001,27.313995 27.360001,38.879997zm110.880005,-6.720001c1.168991,2.511002 2.29599,5.064003 4.799988,6.240005c6.256012,-10.384003 13.337006,-19.944 18.721008,-31.200005c-0.055008,-0.585999 -0.143997,-1.137001 -0.960007,-0.959999c-7.118988,9.042 -15.718002,16.601997 -22.560989,25.919998zm-14.880005,99.360001c4.973999,-3.820999 11.412003,-8.884003 14.880005,-13.440002c2.744995,-3.606995 7.283997,-11.367996 8.159988,-15.358994c0.729004,-3.318008 1.298004,-3.979004 1.919998,-5.76001c1.978012,-5.660995 0.929001,-11.681992 2.880005,-17.759995c-1.431,-31.752998 -23.041,-60.797997 -53.759995,-65.279999c-3.201996,-0.467003 -6.666,0.743004 -9.600006,-1.919998c-2.647995,1.929001 -6.587997,0.955002 -10.080002,1.439995c-18.771996,2.608002 -36.568993,13.625 -44.639992,26.400002c-5.204002,8.236 -11.190002,18.099998 -12.480003,28.800003c-1.793999,14.880997 1.064003,25.985992 6.239998,40.319992c9.442001,14.238007 20.606003,26.753006 38.880005,32.159012c1.081001,-0.199005 -0.072006,-2.632004 1.439995,-2.399002c1.771004,0.904999 4.560005,1.412003 6.240005,0c-2.002007,-2.322998 -9.426003,-1.768005 -8.639999,-5.279999c3.32,2.759995 9.824997,2.335999 13.440002,4.800003c0.205994,1.325989 -1.789001,0.450989 -1.920013,1.439987c2.605011,0.115005 3.393005,2.048004 3.840012,4.319c19.656998,1.181 33.266998,-4.848999 43.199997,-12.479996zm-103.200005,-78.239998c-1.636993,-2.203003 -4.742996,-2.937004 -5.759995,-5.760002c-9.662003,-3.528 -20.682003,0.677002 -27.84,-1.440002c-5.560001,-1.115997 -16.639002,-9.268997 -13.920002,-18.719994c-2.316999,-2.970001 -9.821,-8.788002 -13.92,-3.840004c4.185,1.416 7.595001,3.605003 10.08,6.720001c1.16,4.119003 3.969,6.591003 4.800001,11.040001c5.870998,6.802002 12.764997,10.561996 23.039999,11.040001c3.295002,0.153999 6.356998,-0.902 9.599998,-0.480003c6.229004,0.812004 6.853004,6.484001 12,7.200005c1.481003,-1.426003 2.908005,-3.151001 1.919998,-5.760002zm193.920006,-28.800003c-0.027008,-0.292999 -0.071014,-0.568001 -0.479004,-0.479996c-4.958008,5.304001 -16.024002,1.402 -23.520996,1.919998c-13.889999,0.959999 -20.136002,8.666 -27.359009,17.760002c-4.232986,3.319 -10.076996,0.361 -15.360001,1.439995c-0.246994,3.950005 0.694,4.667 2.400009,7.200005c6.692993,0.080002 12.412994,-0.615005 16.800003,-3.840004c3.539001,-7.741997 9.826996,-16.547997 20.159988,-18.239998c3.012009,-0.494003 7.013,0.114998 10.560013,0c2.067001,-0.067001 5.322998,-2.063004 5.759995,0.959999c-6.162994,2.475998 -16.596008,0.683998 -22.080002,3.840004c-8.438004,5.417 -10.362991,18.525993 -21.119003,21.119995c-3.061996,0.737999 -4.565994,-0.453995 -7.681,0.959999c-0.881989,2.309006 0.785004,4.964005 1.919998,6.720009c8.723999,-2.048004 14.556,-2.98201 19.681,-8.640007c5.548004,-6.125999 6.139008,-16.010002 13.920013,-19.199997c3.319992,-1.361 5.909988,-0.162003 10.079987,-0.480003c7.800003,-0.594002 15.496017,-4.244995 16.800003,-11.519997c-0.028992,0.292999 -0.074005,0.568001 -0.481995,0.479996zm-217.920002,20.160004c-0.146,-1.265999 1.001999,-1.237999 1.919998,-1.440002c10.479,-1.448997 18.688,1.620003 24.48,6.239998c2.863998,-2.145996 2.309006,-5.806999 0.959999,-9.119995c-5.124001,-1.068001 -7.688995,-4.316002 -12.959995,-4.800003c-5.719002,-0.524002 -9.956001,2.375999 -15.360001,3.360001c-7.955002,1.447998 -12.055,-2.012001 -18.720001,-5.279999c2.622999,7.617996 9.866001,10.613998 19.68,11.040001zm-17.280001,33.120003c-3.341999,0.817001 -7.320999,-0.335999 -9.6,3.360001c15.598999,-0.51001 33.109001,0.037003 46.080002,-2.400009c1.957001,-2.363998 1.341995,-7.297989 1.440002,-11.519989c-14.012005,1.338989 -25.627003,7.552994 -37.920004,10.559998zm175.679998,-9.600006c-1.158997,2.888 0.154007,7.111008 0.479004,10.080002c12.123001,0.832001 30.918991,2.431 42.720993,0c-14.789001,-3.837006 -28.292999,-6.710999 -43.199997,-10.080002zm0.479996,15.360001c-1.163986,2.207001 -2.332993,5.278 -1.438995,8.160004c7.044006,0.093002 8.554001,-2.378006 15.359009,-2.400009c7.103989,-3.615997 18.528992,-2.910995 24.959991,-7.199997c-12.210999,0.014008 -26.457001,-0.878998 -38.880005,1.440002zm-183.359993,0.960007c13.961998,2.311996 28.716,7.246994 45.120003,8.639999c1.171997,-2.901001 -0.384003,-6.881012 -0.960007,-9.600006c-13.213997,-0.218002 -30.535995,-1.776001 -44.159996,0.960007zm28.799999,15.839996c-4.075001,3.727997 -7.320999,5.684998 -9.119999,9.119995c-1.802002,3.443008 -1.389,7.429001 -4.799999,10.559998c-4.899002,4.497009 -11.487001,1.67601 -18.240002,2.881012c-5.515,0.982986 -12.805,6.587997 -12.96,12.478989c4.913,-0.962997 10.443,-3.759003 15.839999,-3.360001c2.923,0.21701 5.537001,1.762009 8.16,1.921005c5.893,0.354004 12.254,-0.914993 16.320002,-5.279999c3.355999,-3.604004 4.439999,-9.102005 9.599998,-11.520996c3.252003,-1.524002 7.165001,-0.450012 10.080002,-1.439011c3.755997,-1.273987 10.429001,-6.996994 6.239998,-10.080002c-4.812996,1.505005 -6.921997,0.693008 -11.039997,1.439011c-10.583,1.917999 -10.774002,11.666992 -16.800003,17.279999c-4.232998,3.942993 -11.105,5.789993 -16.319998,5.759995c-3.135,-0.01799 -6.414001,-1.735001 -10.560001,-0.959991c-2.424,0.453995 -4.853,3.809998 -7.2,1.919998c1.974,-6.292999 11.373,-3.053009 17.28,-3.359009c5.463001,-0.283997 12.486,-3.244995 15.84,-7.199997c3.617001,-4.265991 4.330002,-9.998993 8.16,-13.440002c5.406002,-4.856995 11.968002,-1.235992 18.239998,-7.19899c-4.034996,-6.337997 -13.645996,-1.613007 -18.719997,0.477997zm198.719997,20.160004c-3.14299,-3.042999 -7.307999,-6.930008 -12.959991,-8.160004c-7.604004,-1.654999 -18.421005,-0.057007 -22.560013,-3.359009c-2.834991,-2.263 -4.426987,-10.556 -9.119995,-10.560989c-3.067993,-0.003006 -5.113998,4.442993 -4.800003,6.720001c0.519012,3.759995 8.899002,9.718002 12.960007,10.560989c6.255997,1.298004 13.264999,-1.199997 19.199005,-0.479996c6.235992,0.757004 11.05899,4.505005 14.399994,8.160004c2.985001,3.265991 4.074997,8.179001 8.639999,10.080002c-2.843994,-3.397003 -4.184998,-8.294998 -5.759003,-12.960999zm-18.720001,-2.401001c-5.332993,-0.31601 -10.653,1.524002 -16.800003,1.919998c-6.753998,-1.886002 -10.944992,-6.335007 -16.800995,-9.119003c-6.940002,8.699997 6.371002,16.604004 13.921005,17.279007c9.229996,0.825989 18.692001,-8.63501 27.358994,-3.840012c5.589005,4.011002 7.210999,11.988998 14.880005,13.919998c-5.503006,-8.498993 -10.072006,-19.416 -22.559006,-20.159988zm-178.079994,43.200989c2.987999,-1.955994 5.092999,-5.128998 7.199997,-7.679993c2.608002,-3.158005 7.204002,-8.042999 10.080002,-10.561005c2.187996,-1.914001 3.294998,-6.141998 6.239998,-9.599991c3.140999,-3.688004 7.146004,-5.886002 7.200005,-8.639999c0.057999,-2.948013 -6.593002,-9.104004 -8.160004,-10.080002c-6.473,16.248001 -17.388,30.612 -22.559998,46.560989zm138.719994,-40.319992c-2.903992,1.414993 -4.209991,4.429993 -5.759995,7.199005c4.199005,4.773987 9.416,9.354996 13.919998,13.439987c3.481995,3.158005 4.820999,6.501999 7.680008,9.600006c2.886993,3.126999 7.047989,5.942993 10.560989,7.681c-8.509995,-12.932007 -16.615997,-26.264999 -26.401001,-37.919998zm-97.439995,14.399994c0.473999,-3.516998 -4.264,-4.513992 -6.720001,-6.720001c-10.163002,9.837006 -19.932999,20.067001 -28.799999,31.200012c7.993,-3.048004 12.815998,-9.264999 20.640003,-12.480011c0.671997,-4.306992 14.379997,-8.291992 14.879997,-12zm106.079994,11.520004c-5.39299,-4.832993 -18.544998,-23.335999 -24.479996,-10.080002c13.259995,8.5 24.882004,18.639008 39.839996,25.438995c-3.253998,-5.334991 -8.707993,-9.398987 -15.360001,-15.358994zm56.640015,-7.199997c2.723999,0.46199 6.765991,1.130005 7.199982,-1.919998c-2.122986,-0.117004 -3.496979,-0.983002 -5.759979,-0.960007c0.024994,1.464996 -1.729004,1.150009 -1.440002,2.880005zm-155.520012,21.119995c-0.146996,1.106003 1.387001,0.533005 1.440002,1.438995c2.365997,18.240005 -11.293999,26.110001 -18.239998,38.880005c-0.32,0 -0.639999,0 -0.959999,0c-0.675003,-9.141998 9.103996,-11.841995 12.479996,-19.199997c1.200005,-2.615005 3.110001,-7.910995 3.360001,-10.078995c0.670998,-5.823013 -2.370003,-11.596008 -1.440002,-17.761002c0.826004,-5.478012 4.090004,-7.990997 5.280006,-13.439011c-2.783005,-5.280991 -8.220001,-1.151001 -11.040001,1.439011c-6.754005,10.914001 3.590996,18.578003 2.879997,28.319992c-1.047997,14.350006 -24.463997,21.950989 -13.919998,39.360016c1.652,-1.229004 1.353996,-4.404999 2.879997,-5.761017c-0.586998,2.731995 2.57,2.688019 3.360001,1.440002c0.515999,-2.436005 -1.846001,-1.993988 -2.879997,-2.880005c3.340996,-7.937988 10.778999,-9.356995 15.360001,-13.919998c6.261993,-6.237 7.336998,-14.279999 7.68,-24.479996c0.149994,-4.457993 1.131996,-8.151001 2.399994,-12c2.364006,-1.955994 5.461006,-3.179001 6.720001,-6.240005c-2.556,-1.123001 -4.350998,-3.008987 -8.159996,-2.87999c-4.785004,3.537003 -7.038002,9.603989 -7.200005,17.761993zm62.879997,-18.720993c-3.675995,9.410995 1.67601,17.619995 6.238998,23.039993c8.574005,3.076004 12.380005,8.904007 12.960007,17.761002c0.272003,4.158005 -1.787994,8.672989 -1.438995,12.960007c0.289001,3.557983 2.889999,6.134979 3.360001,9.118988c-0.475998,2.037018 -2.925003,-0.682983 -2.881012,1.440002c1.699005,2.300995 4.300003,3.700989 7.200012,4.800018c-0.033005,-4.937012 -3.695999,-9.594025 -3.359009,-16.319c0.337997,-6.759018 2.141998,-12.600021 0.479004,-18.721008c-1.300003,-4.785004 -4.166,-7.533005 -6.720001,-11.520004c-4.132004,-2.372009 -9.149002,-5.729004 -10.080002,-11.520996c-0.660004,-4.105011 2.178009,-8.430008 0,-12.479004c-2.240997,-1.143005 -3.774002,0.910995 -5.759003,1.440002zm-12,5.280991c-1.677994,12.320007 3.791,21.284012 12.960007,24.480011c1.442993,0.502991 3.709991,0.145996 5.278992,0.959991c3.823013,1.98201 6.170013,7.550995 6.721008,12c0.800995,6.473999 -2.734009,15.011993 3.358994,17.76001c-3.270996,-4.923004 0.749008,-10.365021 0.960007,-15.360001c0.307999,-7.246002 -3.431,-12.004013 -6.238998,-17.280014c-3.639008,-1.320999 -6.061996,-3.856995 -9.600998,-5.278992c-4.596008,-4.955994 -6.129013,-12.908997 -7.680008,-19.680008c-2.315002,0.402008 -4.33699,1.101013 -5.759003,2.399002zm-27.839996,0.480011c3.277008,14.322998 5.214005,34.145996 11.040009,47.519989c-2.098007,-14.76799 -0.582001,-33.244995 -3.360001,-46.559998c-2.456009,-0.237 -5.59201,-1.905991 -7.680008,-0.959991zm12.960007,1.439987c-0.268005,14.234009 -0.008011,28.905014 0,43.680008c3.048996,-3.671005 2.862991,-10.576004 3.839996,-16.319c3.007004,-5.473007 4.406998,-12.552994 4.800003,-20.641006c1.149002,-2.011993 2.541,-5.382996 1.438995,-8.158997c-3.681,0.156006 -7.585999,0.091995 -10.078995,1.438995z" fill-rule="evenodd" fill="black" clip-rule="evenodd" id="svg_62"/>
   <path d="m174.210999,94.080002c-3.494995,0.18 -6.110001,-3.369003 -9.600998,-4.800003c-2.171997,-0.890999 -5.089996,-1.071999 -7.680008,-1.919998c-2.321991,-0.760002 -4.737,-2.445999 -6.719986,-2.879997c-17.833008,-3.901001 -35.403008,2.534996 -47.521004,7.68c-0.520004,-2.154007 4.019997,-3.712006 3.839996,-2.400002c0.693001,-0.587006 0.729004,-1.832001 1.440002,-2.400002c6.049995,-2.099998 12.151001,-5.045998 19.68,-5.760002c14.240997,-1.348999 28.826996,1.600998 39.360001,6.720001c0.358994,0.906998 1.432999,0.333 0.479004,1.440002c1.55899,-0.278 2.232986,0.326996 3.360001,0.479996c0.50499,1.898003 3.213989,1.589005 3.362991,3.840004z" fill-rule="evenodd" clip-rule="evenodd" id="svg_63"/>
  </g>
 </g>
</svg>